<?xml version="1.0" standalone="no"?>
<!DOCTYPE svg PUBLIC "-//W3C//DTD SVG 20010904//EN"
 "http://www.w3.org/TR/2001/REC-SVG-20010904/DTD/svg10.dtd">
<svg version="1.0" xmlns="http://www.w3.org/2000/svg"
 width="360.000000pt" height="360.000000pt" viewBox="0 0 360.000000 360.000000"
 preserveAspectRatio="xMidYMid meet">
<metadata>
Created by potrace 1.14, written by Peter Selinger 2001-2017
</metadata>
<g transform="translate(0.000000,360.000000) scale(0.100000,-0.100000)"
fill="#000000" stroke="none">
<path d="M1761 2896 c-9 -10 -12 -77 -12 -221 0 -182 2 -209 17 -226 22 -24
46 -24 68 0 16 17 18 43 18 226 -1 144 -4 211 -13 221 -15 18 -63 18 -78 0z"/>
<path d="M1421 2661 c-17 -14 -19 -24 -12 -47 13 -44 81 -207 93 -221 24 -30
88 -1 88 39 0 20 -79 209 -96 228 -18 22 -49 22 -73 1z"/>
<path d="M2108 2663 c-30 -34 -101 -221 -94 -248 7 -27 49 -44 73 -29 19 12
106 210 106 241 0 29 -10 40 -43 48 -18 4 -31 1 -42 -12z"/>
<path d="M1012 2588 c-33 -33 -15 -61 136 -211 82 -81 156 -147 164 -147 9 0
26 9 39 19 20 16 22 23 14 45 -9 24 -236 261 -280 292 -24 17 -57 18 -73 2z"/>
<path d="M2383 2458 c-77 -79 -144 -153 -148 -166 -8 -28 18 -62 48 -62 13 0
76 55 169 147 151 150 169 178 136 211 -33 33 -61 15 -205 -130z"/>
<path d="M1683 2296 c-163 -40 -292 -154 -361 -319 -34 -82 -37 -240 -7 -332
70 -218 296 -372 517 -352 74 6 156 26 164 38 3 5 11 9 19 9 15 0 84 45 126
82 36 31 99 112 99 127 0 6 5 11 10 11 6 0 10 8 10 18 0 10 3 22 7 26 15 15
33 86 39 156 18 209 -94 404 -286 497 -107 53 -225 66 -337 39z"/>
<path d="M957 2192 c-25 -5 -39 -46 -26 -75 8 -16 41 -34 118 -64 59 -24 114
-43 122 -43 9 0 24 9 34 20 32 35 11 67 -65 100 -110 48 -164 67 -183 62z"/>
<path d="M2620 2193 c-8 -3 -22 -7 -30 -10 -8 -3 -19 -7 -25 -8 -24 -6 -161
-70 -172 -81 -28 -28 -3 -84 37 -84 10 0 50 14 89 30 94 40 126 52 128 48 1
-2 8 6 16 16 12 17 14 35 8 68 -2 12 -35 26 -51 21z"/>
<path d="M775 1852 c-68 -4 -85 -14 -85 -52 0 -49 12 -52 236 -51 180 0 209 2
225 17 24 22 24 46 0 68 -16 14 -43 17 -167 19 -82 1 -176 1 -209 -1z"/>
<path d="M2453 1837 c-28 -22 -29 -48 -4 -72 18 -15 43 -17 226 -17 146 0 210
4 220 12 19 15 19 64 2 79 -9 7 -88 12 -217 13 -184 3 -206 1 -227 -15z"/>
<path d="M1100 1568 c-59 -26 -94 -41 -100 -42 -14 -4 -70 -32 -71 -36 0 -3
-2 -14 -4 -24 -5 -26 10 -52 34 -59 22 -6 239 83 252 104 22 35 -3 80 -44 78
-12 0 -42 -10 -67 -21z"/>
<path d="M2395 1570 c-34 -38 -11 -66 88 -110 127 -57 151 -62 175 -39 11 10
19 26 17 36 -2 10 -4 23 -4 29 -1 5 -18 17 -38 26 -205 88 -210 89 -238 58z"/>
<path d="M1148 1223 c-151 -150 -169 -178 -136 -211 33 -33 61 -15 211 136 81
82 147 155 147 163 0 25 -30 59 -52 59 -14 0 -72 -51 -170 -147z"/>
<path d="M2258 1363 c-19 -5 -32 -47 -21 -68 11 -19 252 -263 278 -281 25 -18
53 -18 71 0 33 33 17 58 -130 205 -138 138 -160 154 -198 144z"/>
<path d="M1509 1208 c-21 -17 -101 -205 -101 -236 0 -13 4 -28 10 -34 17 -17
60 -17 75 0 19 23 97 208 97 232 0 40 -50 64 -81 38z"/>
<path d="M2027 1202 c-24 -26 -22 -40 24 -149 49 -115 62 -132 95 -128 58 6
59 42 4 170 -24 55 -47 106 -53 113 -14 18 -51 15 -70 -6z"/>
<path d="M1778 1163 c-9 -2 -20 -13 -23 -23 -12 -38 -7 -420 5 -436 16 -18 64
-18 80 1 9 10 12 73 12 226 -1 191 -3 212 -19 225 -19 14 -26 15 -55 7z"/>
</g>
</svg>
